<svg height="768" preserveAspectRatio="xMidYMid meet" viewBox="0 0 1024.5 576" width="1366" xmlns="http://www.w3.org/2000/svg" xmlns:xlink="http://www.w3.org/1999/xlink" zoomAndPan="magnify"><clipPath id="a"><path d="m655.707031 170.238281h311.25v311.25h-311.25zm0 0"/></clipPath><path d="m831.410156 416.226562v40.160157c0 11.089843-8.992187 20.082031-20.078125 20.082031h-130.523437c-11.089844 0-20.082032-8.992188-20.082032-20.082031v-40.160157zm0 0" fill="#969faa"/><path d="m811.332031 175.257812h-20.082031v20.082032c0 5.546875-4.492188 10.039062-10.039062 10.039062h-70.285157c-5.546875 0-10.039062-4.492187-10.039062-10.039062v-20.082032h-20.078125c-11.089844 0-20.082032 8.992188-20.082032 20.082032v220.886718h170.683594v-220.886718c0-11.089844-8.992187-20.082032-20.078125-20.082032zm0 0" fill="#69d6f4"/><path d="m791.25 175.257812v20.082032c0 5.546875-4.492188 10.039062-10.039062 10.039062h-70.285157c-5.546875 0-10.039062-4.492187-10.039062-10.039062v-20.082032zm0 0" fill="#4fc1e9"/><path d="m766.148438 441.328125v10.039063c0 2.773437-2.246094 5.019531-5.019532 5.019531h-30.121094c-2.773437 0-5.019531-2.246094-5.019531-5.019531v-10.039063c0-2.773437 2.246094-5.019531 5.019531-5.019531h30.121094c2.773438 0 5.019532 2.246094 5.019532 5.019531zm0 0" fill="#e6e9ed"/><path d="m961.9375 325.863281v20.082031c0 11.085938-8.992188 20.078126-20.082031 20.078126h-145.585938v-9.421876c0-6.28125-2.917969-12.019531-7.609375-15.738281 4.730469-5.324219 7.609375-12.332031 7.609375-20.019531v-15.058594h145.585938c11.089843 0 20.082031 8.992188 20.082031 20.078125zm0 0" fill="#ffeaa7"/><g fill="#b27946"><path d="m796.269531 305.785156v15.058594c0 7.6875-2.878906 14.695312-7.609375 20.019531-2.183594-1.734375-4.757812-3.03125-7.601562-3.742187l-14.910156-3.726563-10.039063-2.511719v-10.039062l4.242187-2.121094c4.855469-2.421875 8.808594-6.117187 11.558594-10.566406 2.75-4.445312 4.28125-9.640625 4.28125-15.0625 0-.789062-.03125-1.582031-.101562-2.363281l.054687-.007813h10.085938c2.773437 0 5.285156-1.125 7.101562-2.9375 1.816407-1.820312 2.9375-4.328125 2.9375-7.101562zm0 0"/><path d="m736.027344 320.84375v10.039062l-10.039063 2.511719-14.910156 3.726563c-2.84375.710937-5.414063 2.007812-7.597656 3.742187-4.734375-5.324219-7.613281-12.332031-7.613281-20.019531v-40.160156c0 2.773437 1.125 5.28125 2.9375 7.101562 1.820312 1.8125 4.328124 2.9375 7.101562 2.9375h10.085938l.054687.007813c-.066406.78125-.097656 1.574219-.097656 2.363281 0 10.851562 6.128906 20.777344 15.835937 25.628906zm0 0"/><path d="m796.269531 275.664062v5.019532c0-5.546875-4.492187-10.042969-10.039062-10.042969h-13.386719l-1.675781-10.039063h-.859375c-4.546875 0-8.996094-.902343-13.121094-2.609374-4.117188-1.707032-7.90625-4.21875-11.117188-7.429688-6.425781 6.425781-15.148437 10.039062-24.242187 10.039062h-.859375l-1.675781 10.039063h-13.386719c-5.546875 0-10.039062 4.496094-10.039062 10.042969v-5.019532c0-13.863281 5.621093-26.414062 14.703124-35.5 9.085938-9.082031 21.636719-14.703124 35.5-14.703124 27.722657 0 50.199219 22.476562 50.199219 50.203124zm0 0"/></g><path d="m796.269531 356.601562v9.421876h-100.402343v-9.421876c0-6.28125 2.917968-12.019531 7.613281-15.738281 2.183593-1.734375 4.753906-3.03125 7.597656-3.742187l14.910156-3.726563c0 6.933594 5.617188 12.550781 12.550781 12.550781h15.058594c6.933594 0 12.550782-5.617187 12.550782-12.550781l14.910156 3.726563c2.84375.710937 5.417968 2.007812 7.601562 3.742187 4.691406 3.71875 7.609375 9.457031 7.609375 15.738281zm0 0" fill="#b4dd7f"/><g fill="#fcd770"><path d="m811.332031 371.046875v20.078125c0 2.773438-2.246093 5.019531-5.019531 5.019531h-20.082031c-2.773438 0-5.019531-2.246093-5.019531-5.019531v-20.078125c0-2.773437 2.246093-5.023437 5.019531-5.023437h20.082031c2.773438 0 5.019531 2.25 5.019531 5.023437zm0 0"/><path d="m761.128906 371.046875v20.078125c0 2.773438-2.246094 5.019531-5.019531 5.019531h-20.082031c-2.773438 0-5.019532-2.246093-5.019532-5.019531v-20.078125c0-2.773437 2.246094-5.023437 5.019532-5.023437h20.082031c2.773437 0 5.019531 2.25 5.019531 5.023437zm0 0"/><path d="m710.925781 371.046875v20.078125c0 2.773438-2.246093 5.019531-5.019531 5.019531h-20.078125c-2.773437 0-5.019531-2.246093-5.019531-5.019531v-20.078125c0-2.773437 2.246094-5.023437 5.019531-5.023437h20.078125c2.773438 0 5.019531 2.25 5.019531 5.023437zm0 0"/></g><path d="m786.230469 270.640625c5.546875 0 10.039062 4.496094 10.039062 10.042969 0 2.773437-1.121093 5.28125-2.9375 7.101562-1.816406 1.8125-4.328125 2.9375-7.101562 2.9375h-10.085938l-.054687.007813c-.0625-.785157-.164063-1.570313-.289063-2.347657l-2.957031-17.742187zm0 0" fill="#f0d0b4"/><path d="m776.089844 290.730469c.070312.78125.101562 1.574219.101562 2.363281 0 5.421875-1.53125 10.617188-4.28125 15.0625-2.75 4.449219-6.703125 8.144531-11.558594 10.566406l-4.242187 2.121094v10.039062l10.039063 2.511719c0 6.933594-5.617188 12.550781-12.550782 12.550781h-15.058594c-6.933593 0-12.550781-5.617187-12.550781-12.550781l10.039063-2.511719v-10.039062l-4.242188-2.121094c-9.707031-4.851562-15.835937-14.777344-15.835937-25.628906 0-.789062.03125-1.582031.097656-2.363281.0625-.785157.164063-1.570313.289063-2.347657l2.957031-17.742187 1.675781-10.039063h.859375c9.09375 0 17.816406-3.613281 24.242187-10.039062 3.210938 3.210938 7 5.722656 11.117188 7.429688 4.125 1.707031 8.574219 2.609374 13.121094 2.609374h.859375l1.675781 10.039063 2.957031 17.742187c.125.777344.226563 1.5625.289063 2.347657zm0 0" fill="#f0d0b4"/><path d="m719.292969 270.640625-2.957031 17.742187c-.125.777344-.226563 1.5625-.289063 2.347657l-.054687-.007813h-10.085938c-2.773438 0-5.28125-1.125-7.101562-2.9375-1.8125-1.820312-2.9375-4.328125-2.9375-7.101562 0-5.546875 4.492187-10.042969 10.039062-10.042969zm0 0" fill="#f0d0b4"/><path d="m951.894531 255.582031c0 1.644531-.078125 3.285157-.242187 4.921875-.160156 1.632813-.402344 3.257813-.722656 4.871094-.320313 1.613281-.71875 3.207031-1.195313 4.78125-.476563 1.570312-1.03125 3.117188-1.660156 4.636719-.628907 1.519531-1.332031 3.003906-2.105469 4.453125-.777344 1.449218-1.621094 2.859375-2.535156 4.226562-.914063 1.367188-1.890625 2.6875-2.933594 3.957032-1.042969 1.269531-2.144531 2.488281-3.308594 3.648437-1.164062 1.164063-2.378906 2.265625-3.648437 3.308594-1.273438 1.042969-2.589844 2.023437-3.957031 2.9375-1.367188.910156-2.777344 1.757812-4.226563 2.53125-1.449219.773437-2.933594 1.476562-4.453125 2.105469-1.519531.628906-3.066406 1.183593-4.640625 1.660156-1.574219.476562-3.164063.875-4.777344 1.199218-1.613281.320313-3.238281.558594-4.875.722657-1.636719.160156-3.273437.242187-4.917969.242187-1.644531 0-3.285156-.082031-4.921874-.242187-1.636719-.164063-3.261719-.402344-4.875-.722657-1.609376-.324218-3.203126-.722656-4.777344-1.199218-1.574219-.476563-3.121094-1.03125-4.636719-1.660156-1.519531-.628907-3.003906-1.332032-4.457031-2.105469-1.449219-.773438-2.855469-1.621094-4.222656-2.53125-1.367188-.914063-2.6875-1.894531-3.957032-2.9375-1.273437-1.042969-2.488281-2.144531-3.652344-3.308594-1.160156-1.160156-2.265624-2.378906-3.308593-3.648437-1.042969-1.269532-2.019531-2.589844-2.933594-3.957032-.914063-1.367187-1.757813-2.777344-2.53125-4.226562-.777344-1.449219-1.480469-2.933594-2.109375-4.453125s-1.179688-3.066407-1.660156-4.636719c-.476563-1.574219-.875-3.167969-1.195313-4.78125-.320312-1.613281-.5625-3.238281-.722656-4.871094-.160156-1.636718-.242187-3.277344-.242187-4.921875s.082031-3.285156.242187-4.921875c.160156-1.636718.402344-3.257812.722656-4.871094.320313-1.613281.71875-3.207031 1.195313-4.78125.480468-1.570312 1.03125-3.117187 1.660156-4.636718.628906-1.519532 1.332031-3.003906 2.109375-4.453125.773437-1.449219 1.617187-2.859375 2.53125-4.226563.914063-1.367187 1.890625-2.6875 2.933594-3.957031s2.148437-2.488281 3.308593-3.652344c1.164063-1.160156 2.378907-2.261719 3.652344-3.308593 1.269532-1.042969 2.589844-2.019532 3.957032-2.933594 1.367187-.914063 2.773437-1.757813 4.222656-2.53125 1.453125-.777344 2.9375-1.476563 4.457031-2.105469 1.515625-.628906 3.0625-1.183594 4.636719-1.660156 1.574218-.476563 3.167968-.878907 4.777344-1.199219 1.613281-.320312 3.238281-.5625 4.875-.722656 1.636718-.160156 3.277343-.242188 4.921874-.242188 1.644532 0 3.28125.082032 4.917969.242188s3.261719.402344 4.875.722656 3.203125.722656 4.777344 1.199219c1.574219.476562 3.121094 1.03125 4.640625 1.660156s3.003906 1.328125 4.453125 2.105469c1.449219.773437 2.859375 1.617187 4.226563 2.53125 1.367187.914062 2.683593 1.890625 3.957031 2.933594 1.269531 1.046874 2.484375 2.148437 3.648437 3.308593 1.164063 1.164063 2.265625 2.382813 3.308594 3.652344s2.019531 2.589844 2.933594 3.957031c.914062 1.367188 1.757812 2.777344 2.535156 4.226563.773438 1.449219 1.476562 2.933593 2.105469 4.453125.628906 1.519531 1.183593 3.066406 1.660156 4.636718.476563 1.574219.875 3.167969 1.195313 4.78125.320312 1.613282.5625 3.234376.722656 4.871094.164062 1.636719.242187 3.277344.242187 4.921875zm0 0" fill="#ff826e"/><path d="m761.128906 431.289062h-30.121094c-5.535156 0-10.039062 4.503907-10.039062 10.039063v10.039063c0 5.535156 4.503906 10.042968 10.039062 10.042968h30.121094c5.535156 0 10.039063-4.507812 10.039063-10.042968v-10.039063c0-5.535156-4.503907-10.039063-10.039063-10.039063zm0 20.078126h-30.121094v-10.039063h30.121094l.007813 10.039063s-.003907 0-.007813 0zm0 0"/><path d="m756.109375 361.003906h-20.082031c-5.535156 0-10.039063 4.503906-10.039063 10.042969v20.078125c0 5.535156 4.503907 10.042969 10.039063 10.042969h20.082031c5.535156 0 10.039063-4.507813 10.039063-10.042969v-20.078125c0-5.539063-4.503907-10.042969-10.039063-10.042969zm0 30.121094h-20.082031v-20.078125h20.082031zm0 0"/><path d="m725.988281 190.320312c0 .328126-.03125.65625-.097656.980469-.0625.320313-.160156.636719-.285156.941407-.125.304687-.28125.59375-.464844.867187s-.390625.527344-.621094.761719c-.234375.230468-.488281.441406-.761719.621094-.273437.183593-.5625.339843-.867187.464843s-.621094.222657-.941406.285157c-.324219.066406-.652344.097656-.980469.097656-.332031 0-.65625-.03125-.980469-.097656-.324219-.0625-.636719-.160157-.941406-.285157s-.59375-.28125-.867187-.464843c-.273438-.179688-.527344-.390626-.761719-.621094-.234375-.234375-.441407-.488282-.625-.761719-.183594-.273437-.335938-.5625-.464844-.867187-.125-.304688-.21875-.621094-.285156-.941407-.0625-.324219-.09375-.652343-.09375-.980469 0-.332031.03125-.65625.09375-.980468.066406-.324219.160156-.636719.285156-.941406.128906-.304688.28125-.59375.464844-.867188.183593-.273438.390625-.527344.625-.761719s.488281-.441406.761719-.625c.273437-.183593.5625-.335937.867187-.464843.304687-.125.617187-.21875.941406-.285157.324219-.0625.648438-.09375.980469-.09375.328125 0 .65625.03125.980469.09375.320312.066407.636719.160157.941406.285157.304687.128906.59375.28125.867187.464843.273438.183594.527344.390625.761719.625.230469.234375.4375.488281.621094.761719s.339844.5625.464844.867188c.125.304687.222656.617187.285156.941406.066406.324218.097656.648437.097656.980468zm0 0"/><path d="m776.191406 190.320312c0 .328126-.035156.65625-.097656.980469-.066406.320313-.160156.636719-.285156.941407-.128906.304687-.28125.59375-.464844.867187s-.390625.527344-.625.761719c-.234375.230468-.484375.441406-.761719.621094-.273437.183593-.5625.339843-.867187.464843-.304688.125-.617188.222657-.941406.285157-.324219.066406-.648438.097656-.980469.097656-.328125 0-.65625-.03125-.976563-.097656-.324218-.0625-.636718-.160157-.941406-.285157s-.59375-.28125-.871094-.464843c-.273437-.179688-.527344-.390626-.757812-.621094-.234375-.234375-.441406-.488282-.625-.761719s-.339844-.5625-.464844-.867187c-.125-.304688-.222656-.621094-.285156-.941407-.066406-.324219-.097656-.652343-.097656-.980469 0-.332031.03125-.65625.097656-.980468.0625-.324219.160156-.636719.285156-.941406.125-.304688.28125-.59375.464844-.867188s.390625-.527344.625-.761719c.230468-.234375.484375-.441406.757812-.625.277344-.183593.566406-.335937.871094-.464843.304688-.125.617188-.21875.941406-.285157.320313-.0625.648438-.09375.976563-.09375.332031 0 .65625.03125.980469.09375.324218.066407.636718.160157.941406.285157.304687.128906.59375.28125.867187.464843.277344.183594.527344.390625.761719.625s.441406.488281.625.761719.335938.5625.464844.867188c.125.304687.21875.617187.285156.941406.0625.324218.097656.648437.097656.980468zm0 0"/><path d="m746.070312 190.320312c0 .328126-.035156.65625-.097656.980469-.066406.320313-.160156.636719-.285156.941407-.128906.304687-.28125.59375-.464844.867187s-.390625.527344-.625.761719c-.230468.230468-.484375.441406-.761718.621094-.273438.183593-.5625.339843-.867188.464843s-.617188.222657-.941406.285157c-.324219.066406-.648438.097656-.980469.097656-.328125 0-.65625-.03125-.976563-.097656-.324218-.0625-.636718-.160157-.941406-.285157-.304687-.125-.59375-.28125-.871094-.464843-.273437-.179688-.527343-.390626-.757812-.621094-.234375-.234375-.441406-.488282-.625-.761719s-.339844-.5625-.464844-.867187c-.125-.304688-.222656-.621094-.285156-.941407-.0625-.324219-.097656-.652343-.097656-.980469 0-.332031.035156-.65625.097656-.980468.0625-.324219.160156-.636719.285156-.941406.125-.304688.28125-.59375.464844-.867188s.390625-.527344.625-.761719c.230469-.234375.484375-.441406.757812-.625.277344-.183593.566407-.335937.871094-.464843.304688-.125.617188-.21875.941406-.285157.320313-.0625.648438-.09375.976563-.09375.332031 0 .65625.03125.980469.09375.324218.066407.636718.160157.941406.285157.304688.128906.59375.28125.867188.464843.277343.183594.53125.390625.761718.625.234375.234375.441406.488281.625.761719s.335938.5625.464844.867188c.125.304687.21875.617187.285156.941406.0625.324218.097656.648437.097656.980468zm0 0"/><g clip-path="url(#a)"><path d="m941.855469 300.761719h-8.449219c14.207031-10 23.507812-26.523438 23.507812-45.179688 0-30.449219-24.769531-55.222656-55.21875-55.222656-30.449218 0-55.222656 24.773437-55.222656 55.222656 0 18.65625 9.300782 35.179688 23.507813 45.179688h-33.546875v-105.421875c0-13.839844-11.261719-25.101563-25.101563-25.101563h-130.523437c-13.84375 0-25.101563 11.261719-25.101563 25.101563v261.046875c0 13.84375 11.257813 25.101562 25.101563 25.101562h130.523437c13.839844 0 25.101563-11.257812 25.101563-25.101562v-85.339844h105.421875c13.839843 0 25.101562-11.261719 25.101562-25.101563v-20.082031c0-13.839843-11.261719-25.101562-25.101562-25.101562zm-85.34375-45.179688c0-24.914062 20.269531-45.183593 45.183593-45.183593 24.910157 0 45.179688 20.269531 45.179688 45.183593 0 24.914063-20.269531 45.179688-45.179688 45.179688-24.914062 0-45.183593-20.265625-45.183593-45.179688zm-150.605469-75.300781h80.324219v15.058594c0 2.769531-2.253907 5.019531-5.019531 5.019531h-70.285157c-2.765625 0-5.019531-2.25-5.019531-5.019531zm105.425781 291.167969h-130.523437c-8.304688 0-15.0625-6.757813-15.0625-15.0625v-35.140625h160.644531v35.140625c0 8.304687-6.753906 15.0625-15.058594 15.0625zm15.058594-60.242188h-160.644531v-215.867187c0-8.304688 6.757812-15.058594 15.0625-15.058594h15.058594v15.058594c0 8.304687 6.757812 15.058594 15.058593 15.058594h70.285157c8.304687 0 15.058593-6.753907 15.058593-15.058594v-15.058594h15.0625c8.304688 0 15.058594 6.753906 15.058594 15.058594v105.421875h-25.101563v-25.097657c0-30.449218-24.769531-55.222656-55.21875-55.222656-30.449218 0-55.222656 24.773438-55.222656 55.222656v45.179688c0 7.003906 2.082032 13.789062 5.929688 19.542969-3.730469 4.410156-5.929688 10.097656-5.929688 16.214843v4.402344h-5.019531c-5.539063 0-10.042969 4.503906-10.042969 10.042969v20.078125c0 5.535156 4.503906 10.042969 10.042969 10.042969h20.078125c5.539062 0 10.042969-4.507813 10.042969-10.042969v-20.078125c0-5.539063-4.503907-10.042969-10.042969-10.042969h-5.019531v-4.402344c0-6.921874 4.691406-12.929687 11.410156-14.609374l9.785156-2.445313c2.5 6.660156 8.929688 11.417969 16.457031 11.417969h15.058594c7.527344 0 13.960938-4.757813 16.457032-11.417969l9.789062 2.445313c6.714844 1.679687 11.40625 7.6875 11.40625 14.609374v4.402344h-5.019531c-5.535157 0-10.039063 4.503906-10.039063 10.042969v20.078125c0 5.535156 4.503906 10.042969 10.039063 10.042969h20.082031c5.535156 0 10.039062-4.507813 10.039062-10.042969v-20.078125h10.039063zm-25.101563-40.160156h5.023438v20.078125h-20.082031v-20.078125zm-10.039062-50.203125c0 4.746094-1.339844 9.347656-3.824219 13.3125-1.617187-.808594-3.335937-1.453125-5.148437-1.90625l-21.148438-5.285156v-3.019532l1.46875-.730468c10.683594-5.34375 17.597656-15.710938 18.507813-27.472656h5.125c1.761719 0 3.449219-.304688 5.019531-.863282zm-85.34375 50.203125v20.078125h-20.078125v-20.078125zm74.535156-85.34375-1.671875-10.039063h7.460938c2.769531 0 5.019531 2.25 5.019531 5.019532 0 2.765625-2.25 5.019531-5.019531 5.019531zm5.789063-20.082031h-9.132813l-1.675781-10.039063h-5.113281c-7.816406 0-15.164063-3.042969-20.691406-8.570312l-3.546876-3.550781-3.550781 3.550781c-5.527343 5.527343-12.875 8.570312-20.691406 8.570312h-5.113281l-1.671875 10.039063h-9.136719c-1.386719 0-2.730469.195312-4.007812.546875 4.375-20.367188 22.515624-35.6875 44.171874-35.6875s39.792969 15.320312 44.167969 35.6875c-1.277343-.351563-2.621093-.546875-4.007812-.546875zm-74.535157 20.082031h-5.789062c-2.765625 0-5.019531-2.253906-5.019531-5.019531 0-2.769532 2.253906-5.019532 5.019531-5.019532h7.460938zm-6.984374 48.453125c-2.484376-3.964844-3.824219-8.566406-3.824219-13.3125v-25.964844c1.570312.558594 3.261719.863282 5.019531.863282h5.125c.910156 11.761718 7.824219 22.128906 18.511719 27.472656l1.464843.730468v3.019532l-21.148437 5.289062c-1.8125.449219-3.53125 1.09375-5.148437 1.902344zm29.320312-19.921875c-8.058594-4.03125-13.0625-12.128906-13.0625-21.140625 0-1.296875.109375-2.605469.320312-3.882812l3.957032-23.734376c7.636718-.652343 14.820312-3.492187 20.824218-8.210937 6 4.71875 13.1875 7.558594 20.824219 8.210937l3.953125 23.730469c.214844 1.28125.324219 2.589844.324219 3.886719 0 9.011719-5.007813 17.109375-13.066406 21.140625l-7.015625 3.507813v17.0625l9.074218 2.265624c-1.292968 2.296876-3.75 3.855469-6.566406 3.855469h-15.058594c-2.816406 0-5.273437-1.558593-6.566406-3.855469l9.074219-2.265624v-17.0625zm222.882812 31.710937c0 8.304688-6.753906 15.058594-15.058593 15.058594h-140.566407v-4.402344c0-6.117187-2.195312-11.804687-5.929687-16.214843 3.851563-5.753907 5.929687-12.539063 5.929687-19.542969v-10.039062h140.566407c8.304687 0 15.058593 6.753906 15.058593 15.058593zm0 0"/></g><path d="m886.632812 268.5625-6.488281-6.492188-7.101562 7.101563 13.589843 13.589844 43.710938-43.710938-7.097656-7.097656zm0 0"/><path d="m816.351562 320.84375h10.039063v10.039062h-10.039063zm0 0"/><path d="m816.351562 340.925781h10.039063v10.039063h-10.039063zm0 0"/><path d="m806.3125 330.882812h10.039062v10.042969h-10.039062zm0 0"/><path d="m826.390625 330.882812h10.042969v10.042969h-10.042969zm0 0"/><path d="m866.550781 320.84375h10.042969v10.039062h-10.042969zm0 0"/><path d="m866.550781 340.925781h10.042969v10.039063h-10.042969zm0 0"/><path d="m856.511719 330.882812h10.039062v10.042969h-10.039062zm0 0"/><path d="m876.59375 330.882812h10.039062v10.042969h-10.039062zm0 0"/><path d="m916.753906 320.84375h10.039063v10.039062h-10.039063zm0 0"/><path d="m916.753906 340.925781h10.039063v10.039063h-10.039063zm0 0"/><path d="m906.714844 330.882812h10.039062v10.042969h-10.039062zm0 0"/><path d="m926.792969 330.882812h10.042969v10.042969h-10.042969zm0 0"/></svg>